<?xml version="1.0" standalone="no"?>
<!DOCTYPE svg PUBLIC "-//W3C//DTD SVG 20010904//EN"
 "http://www.w3.org/TR/2001/REC-SVG-20010904/DTD/svg10.dtd">
<svg version="1.0" xmlns="http://www.w3.org/2000/svg"
 width="92.000000pt" height="95.000000pt" viewBox="0 0 92.000000 95.000000"
 preserveAspectRatio="xMidYMid meet">

<g transform="translate(0.000000,95.000000) scale(0.100000,-0.100000)"
fill="#000000" stroke="none">
<path d="M354 832 c-93 -33 -161 -95 -211 -193 -25 -49 -28 -64 -28 -159 0
-97 2 -110 32 -172 37 -79 98 -142 173 -177 79 -37 191 -37 272 1 199 93 273
351 156 546 -82 137 -255 204 -394 154z m186 -63 c59 -18 130 -78 164 -139 29
-51 31 -62 31 -155 0 -85 -3 -106 -23 -142 -35 -66 -78 -110 -138 -139 -47
-23 -63 -26 -126 -22 -86 5 -136 26 -191 81 -50 50 -78 115 -85 193 -11 146
67 277 193 322 40 14 129 15 175 1z"/>
<path d="M401 683 c-42 -22 -69 -57 -77 -100 -6 -32 -5 -33 25 -33 21 0 31 5
31 15 0 27 47 65 79 65 36 0 71 -40 71 -82 0 -21 -13 -41 -50 -77 -35 -34 -50
-56 -50 -75 0 -22 4 -26 30 -26 20 0 30 5 30 15 0 8 23 40 50 70 43 48 50 61
50 98 0 103 -104 175 -189 130z"/>
<path d="M420 285 c0 -33 2 -35 35 -35 33 0 35 2 35 35 0 33 -2 35 -35 35 -33
0 -35 -2 -35 -35z"/>
</g>
</svg>
