<?xml version="1.0" standalone="no"?>
<!DOCTYPE svg PUBLIC "-//W3C//DTD SVG 20010904//EN"
 "http://www.w3.org/TR/2001/REC-SVG-20010904/DTD/svg10.dtd">
<svg version="1.0" xmlns="http://www.w3.org/2000/svg"
 width="272.000000pt" height="246.000000pt" viewBox="0 0 272.000000 246.000000"
 preserveAspectRatio="xMidYMid meet">

<g transform="translate(0.000000,246.000000) scale(0.100000,-0.100000)"
fill="#000000" stroke="none">
<path d="M1046 2291 c-15 -24 -59 -64 -106 -97 -44 -31 -87 -69 -95 -85 -18
-35 -19 -86 -1 -118 12 -21 12 -30 -1 -56 -14 -29 -14 -35 1 -63 l17 -32 -34
0 c-18 0 -38 -5 -45 -12 -9 -9 -12 -119 -12 -433 0 -389 2 -428 20 -500 11
-43 31 -98 45 -123 14 -25 23 -47 21 -49 -3 -3 -18 -2 -35 2 -24 5 -31 12 -31
31 0 39 -33 64 -86 64 -85 0 -128 -74 -88 -152 12 -23 14 -44 10 -77 -12 -80
-9 -94 29 -127 35 -31 35 -33 33 -96 -2 -43 2 -70 10 -81 20 -24 221 -105 328
-133 143 -36 260 -47 419 -40 206 8 389 53 555 134 l75 37 0 76 0 75 39 28 38
27 -6 72 c-6 54 -3 81 8 109 32 75 -16 148 -95 148 -44 0 -89 -34 -89 -68 0
-21 -18 -32 -50 -32 -16 0 -15 6 11 53 60 111 62 132 67 599 2 300 0 433 -8
447 -8 16 -20 21 -50 21 -45 0 -46 1 -23 36 14 21 15 31 5 56 -9 25 -8 36 5
61 20 40 13 120 -14 150 -20 21 -28 41 -55 137 -11 38 -17 46 -40 48 -23 3
-30 -2 -41 -31 -14 -33 -48 -63 -136 -122 -24 -16 -48 -37 -54 -46 -9 -15 -13
-14 -32 10 -29 36 -48 79 -53 121 -6 50 -19 70 -47 70 -18 0 -30 -10 -44 -39
-14 -26 -45 -56 -98 -93 -43 -30 -84 -62 -91 -71 -13 -15 -16 -14 -37 11 -12
15 -27 43 -33 62 -5 19 -16 55 -24 80 -18 62 -47 66 -82 11z m171 -342 c-10
-16 -14 -17 -25 -5 -12 11 -12 17 0 35 12 19 14 20 25 5 9 -12 9 -21 0 -35z
m367 24 c4 -9 0 -23 -8 -31 -12 -12 -15 -11 -21 7 -11 35 16 58 29 24z m-443
-43 c26 -15 25 -48 -3 -55 -13 -3 -74 -4 -137 -3 -97 3 -115 6 -125 21 -9 15
-7 21 8 33 24 17 226 20 257 4z m375 -4 c15 -12 17 -18 8 -33 -10 -15 -28 -18
-125 -21 -140 -3 -159 0 -159 32 0 14 6 27 13 29 6 3 64 6 128 6 86 1 120 -3
135 -13z m352 8 c15 -4 22 -14 22 -30 0 -31 -20 -35 -159 -32 -97 3 -115 6
-125 21 -21 34 16 47 133 47 58 0 116 -3 129 -6z m-650 -74 c11 -18 10 -20
-18 -20 -28 0 -29 2 -18 20 7 11 15 20 18 20 3 0 11 -9 18 -20z m352 -18 c-29
-5 -36 4 -19 24 12 14 14 14 27 -3 11 -16 11 -18 -8 -21z m-627 -9 c-7 -2 -21
-2 -30 0 -10 3 -4 5 12 5 17 0 24 -2 18 -5z m67 -3 c0 -5 -6 -10 -14 -10 -8 0
-18 5 -21 10 -3 6 3 10 14 10 12 0 21 -4 21 -10z m55 0 c-3 -5 -10 -10 -16
-10 -5 0 -9 5 -9 10 0 6 7 10 16 10 8 0 12 -4 9 -10z m62 4 c-3 -3 -12 -4 -19
-1 -8 3 -5 6 6 6 11 1 17 -2 13 -5z m176 -1 c-7 -2 -19 -2 -25 0 -7 3 -2 5 12
5 14 0 19 -2 13 -5z m69 -5 c-9 -9 -15 -9 -24 0 -9 9 -7 12 12 12 19 0 21 -3
12 -12z m60 0 c-9 -9 -15 -9 -24 0 -9 9 -7 12 12 12 19 0 21 -3 12 -12z m61 5
c-7 -2 -19 -2 -25 0 -7 3 -2 5 12 5 14 0 19 -2 13 -5z m180 0 c-7 -2 -21 -2
-30 0 -10 3 -4 5 12 5 17 0 24 -2 18 -5z m67 -3 c0 -5 -7 -10 -15 -10 -8 0
-15 5 -15 10 0 6 7 10 15 10 8 0 15 -4 15 -10z m60 0 c0 -5 -7 -10 -15 -10 -8
0 -15 5 -15 10 0 6 7 10 15 10 8 0 15 -4 15 -10z m57 4 c-3 -3 -12 -4 -19 -1
-8 3 -5 6 6 6 11 1 17 -2 13 -5z m103 -219 l0 -175 -575 0 -575 0 0 175 0 175
575 0 575 0 0 -175z m0 -416 c0 -250 -10 -318 -63 -413 -31 -55 -36 -59 -92
-77 -77 -24 -94 -24 -177 3 -69 22 -69 22 -136 4 -99 -28 -129 -30 -175 -13
-68 24 -100 27 -163 12 -78 -19 -134 -18 -201 1 -54 16 -55 17 -89 87 -47 101
-54 150 -54 398 l0 219 575 0 575 0 0 -221z m-1221 -418 c25 -16 5 -41 -31
-40 -69 3 -84 19 -34 39 28 11 48 12 65 1z m1359 -7 c30 -21 20 -33 -28 -32
-43 0 -55 10 -46 33 7 20 46 19 74 -1z m-1336 -86 c67 0 83 -3 100 -20 19 -19
19 -21 2 -39 -13 -15 -31 -19 -75 -19 -76 0 -90 -14 -82 -80 6 -56 -4 -63 -38
-29 -13 13 -18 27 -14 37 17 40 17 110 1 133 -22 32 -20 42 6 28 12 -6 57 -11
100 -11z m249 0 c38 -9 59 -8 113 6 81 20 133 20 179 1 46 -19 100 -19 163 0
62 19 141 19 174 0 29 -17 117 -19 156 -5 34 13 39 9 15 -17 -31 -32 -96 -37
-176 -12 -72 22 -81 22 -186 -6 -62 -16 -69 -16 -130 0 -103 28 -106 28 -163
10 -37 -12 -76 -16 -121 -13 -56 3 -69 8 -93 32 l-27 29 25 -7 c14 -4 46 -12
71 -18z m1103 -10 c-13 -24 -15 -46 -9 -104 6 -66 5 -73 -14 -83 -30 -16 -31
-15 -31 42 0 29 -5 58 -12 65 -7 7 -37 12 -68 12 -45 0 -61 4 -76 21 -19 21
-18 21 5 40 20 16 34 19 80 14 36 -3 69 0 91 9 51 20 52 19 34 -16z m-821 -34
c53 -18 146 -16 218 6 43 12 54 12 120 -8 41 -12 87 -22 102 -24 l29 -3 -29
-16 c-26 -16 -32 -16 -88 2 -67 22 -119 21 -211 -5 -58 -16 -63 -15 -124 4
-75 24 -108 25 -174 5 -68 -21 -99 -19 -124 8 l-21 22 52 -3 c29 -2 72 4 97
12 60 19 97 19 153 0z m-230 -107 c230 -141 552 -106 750 81 l37 36 0 -25 c0
-14 6 -47 14 -72 l14 -46 -52 -20 c-204 -76 -440 -100 -642 -66 -88 15 -280
71 -288 84 -3 3 3 36 11 72 l16 65 39 -36 c21 -19 67 -52 101 -73z m261 46
c47 -15 55 -15 143 7 93 23 95 23 153 5 33 -10 60 -22 60 -26 0 -14 -37 -20
-64 -9 -38 14 -82 12 -140 -5 -27 -8 -68 -15 -91 -15 -23 0 -64 7 -91 15 -61
18 -111 19 -144 1 -21 -12 -29 -12 -55 1 l-30 16 50 12 c102 26 120 26 209 -2z
m-458 -19 c-3 -9 -6 -22 -6 -30 0 -20 -20 -18 -76 9 l-49 22 60 6 c33 3 64 6
69 7 4 1 5 -5 2 -14z m1110 6 c24 0 44 -3 44 -7 0 -9 -78 -43 -98 -43 -6 0
-12 6 -12 14 0 8 -3 22 -7 32 -5 14 -3 16 11 11 10 -4 38 -7 62 -7z m-676 -35
c54 -19 113 -19 176 0 55 17 130 20 139 5 3 -5 -25 -19 -62 -30 -99 -31 -253
-31 -348 0 -56 18 -66 24 -50 31 33 13 100 10 145 -6z m-485 -44 c384 -146
672 -156 1025 -38 25 8 70 23 100 32 30 10 61 20 68 22 8 4 12 -6 12 -29 0
-19 4 -38 9 -44 5 -5 11 -34 13 -64 l3 -55 -53 -28 c-148 -80 -342 -127 -558
-134 -179 -6 -295 8 -454 54 -87 25 -242 93 -253 110 -10 16 15 193 27 193 6
0 33 -9 61 -19z"/>
<path d="M1270 1740 c-8 -5 -32 -10 -52 -10 -42 0 -68 -8 -68 -21 0 -6 8 -5
19 1 11 5 31 10 45 10 14 0 46 5 70 12 34 9 51 9 70 0 20 -9 32 -9 51 0 19 8
38 8 77 0 85 -18 134 -24 125 -16 -4 4 -33 12 -65 16 -31 5 -74 11 -95 14 -23
4 -43 1 -53 -7 -11 -9 -18 -9 -26 -1 -14 14 -77 15 -98 2z"/>
<path d="M1245 1684 l-40 -14 39 5 c45 5 42 -3 -6 -16 -27 -7 -26 -8 12 -3 25
3 61 6 80 5 26 -1 31 2 20 9 -11 7 -11 10 -2 10 7 0 10 5 7 10 -9 14 -62 11
-110 -6z m78 -1 c-7 -2 -19 -2 -25 0 -7 3 -2 5 12 5 14 0 19 -2 13 -5z"/>
<path d="M1405 1690 c-3 -5 0 -10 7 -10 9 0 9 -3 -2 -10 -11 -7 -6 -10 20 -9
19 1 55 -2 80 -5 38 -5 39 -4 12 3 -48 13 -51 21 -6 16 l39 -5 -40 14 c-48 17
-101 20 -110 6z m58 -7 c-7 -2 -19 -2 -25 0 -7 3 -2 5 12 5 14 0 19 -2 13 -5z"/>
<path d="M1172 1602 c-2 -55 -5 -72 -14 -67 -7 4 0 -5 15 -19 31 -29 69 -33
107 -11 35 20 50 18 50 -5 0 -17 7 -20 50 -20 43 0 50 3 50 20 0 24 3 24 63 3
46 -16 49 -16 82 1 19 11 35 23 35 28 0 5 -4 6 -10 3 -6 -4 -11 19 -12 62 l-1
68 -6 -65 -6 -65 -32 3 c-17 2 -34 -1 -37 -6 -3 -6 14 -8 42 -7 43 3 45 2 28
-11 -24 -17 -33 -17 -75 -3 -30 10 -31 12 -14 26 16 13 16 13 -6 3 -13 -7 -34
-10 -46 -8 -20 4 -22 1 -19 -19 4 -21 1 -23 -36 -23 -37 0 -40 2 -36 23 3 20
1 23 -19 19 -12 -2 -33 1 -46 8 -22 10 -22 10 -6 -3 17 -14 16 -16 -14 -26
-42 -14 -51 -14 -75 3 -17 13 -15 14 29 11 52 -3 53 11 2 17 -29 3 -30 5 -36
68 l-5 65 -2 -73z"/>
<path d="M1240 1634 l-35 -14 35 7 c19 3 52 7 73 7 20 1 37 4 37 9 0 12 -73 6
-110 -9z"/>
<path d="M1406 1642 c-2 -4 14 -8 37 -8 23 0 58 -3 77 -7 l35 -7 -35 14 c-38
16 -106 21 -114 8z"/>
<path d="M1250 1614 l-45 -14 45 7 c25 3 61 5 80 5 26 -2 31 1 20 8 -20 13
-45 11 -100 -6z"/>
<path d="M1410 1620 c-11 -7 -6 -10 20 -9 19 1 55 -2 80 -5 l45 -6 -50 14
c-60 18 -75 19 -95 6z"/>
<path d="M1241 1589 c-18 -6 -31 -13 -27 -16 3 -3 26 0 50 7 25 7 55 10 66 7
11 -3 20 -1 20 4 0 12 -65 10 -109 -2z"/>
<path d="M1406 1592 c-2 -4 14 -8 37 -8 23 0 58 -3 77 -7 l35 -7 -35 14 c-38
16 -106 21 -114 8z"/>
<path d="M1295 1550 c3 -5 12 -10 20 -10 8 0 17 5 20 10 4 6 -5 10 -20 10 -15
0 -24 -4 -20 -10z"/>
<path d="M1425 1550 c3 -5 12 -10 20 -10 8 0 17 5 20 10 4 6 -5 10 -20 10 -15
0 -24 -4 -20 -10z"/>
<path d="M1368 1534 c-10 -9 3 -34 17 -34 7 0 12 8 11 17 -3 18 -18 27 -28 17z"/>
<path d="M1360 1371 c0 -6 -9 -11 -20 -11 -22 0 -53 -26 -63 -53 -4 -11 -1
-17 9 -17 11 0 12 -5 6 -17 -12 -24 -13 -113 -1 -113 5 0 9 5 9 10 0 6 7 10
15 10 8 0 15 -7 15 -15 0 -21 18 -19 23 3 3 9 5 -6 6 -33 l1 -51 -68 -12 c-56
-9 -77 -9 -117 3 -26 8 -63 15 -82 15 -18 0 -33 4 -33 8 0 12 44 52 58 52 7 0
12 5 12 10 0 6 -4 10 -9 10 -4 0 -6 11 -3 25 2 14 8 25 13 25 15 0 -13 49 -36
64 -27 18 -81 13 -105 -9 -12 -11 -18 -33 -19 -73 -1 -51 2 -58 24 -68 18 -9
25 -9 29 0 3 6 4 -2 3 -18 -2 -29 -5 -30 -87 -48 -81 -17 -122 -39 -106 -55 4
-5 50 -10 102 -11 l94 -4 0 -45 c0 -58 24 -54 28 5 l3 42 151 0 150 0 -4 -55
c-3 -47 0 -55 15 -55 14 0 17 9 17 55 l0 55 155 0 155 0 0 -46 c0 -60 24 -55
28 7 l3 44 81 -3 c92 -4 128 2 128 23 0 17 -53 33 -142 41 -57 6 -68 10 -68
25 0 20 37 59 55 59 7 0 10 20 9 57 -2 46 -7 60 -26 74 -46 36 -127 4 -126
-49 0 -15 -1 -31 -2 -37 -7 -28 3 -51 25 -61 18 -9 25 -9 29 0 2 6 5 -9 5 -33
l1 -44 -87 7 c-49 4 -110 6 -136 6 -80 -2 -87 4 -86 63 1 41 3 47 9 27 4 -14
8 -20 9 -15 1 12 51 44 66 42 10 -2 15 68 7 121 -4 27 -10 34 -33 39 -16 3
-26 9 -23 14 3 5 -4 9 -15 9 -10 0 -26 3 -35 6 -9 3 -16 1 -16 -5z m40 -91 c0
-5 -7 -7 -15 -4 -8 4 -15 8 -15 10 0 2 7 4 15 4 8 0 15 -4 15 -10z"/>
<path d="M967 886 c-4 -9 -4 -22 -1 -30 3 -8 -4 -16 -17 -19 -23 -6 -23 -6 -4
-27 15 -17 27 -21 52 -17 30 5 31 4 20 -14 -10 -16 -9 -21 3 -29 8 -5 18 -6
24 -3 5 3 25 5 45 5 68 -3 96 24 51 48 -11 6 -20 19 -20 30 0 25 -43 54 -84
56 -17 1 -38 5 -47 8 -10 5 -19 1 -22 -8z m137 -45 c4 -5 3 -17 0 -26 -5 -12
-14 -15 -33 -10 -40 10 -47 22 -27 44 18 20 45 16 60 -8z"/>
<path d="M1778 884 c-3 -3 -23 -7 -44 -10 -48 -6 -84 -29 -84 -53 0 -10 -12
-26 -26 -36 -36 -23 -15 -46 40 -45 23 1 51 -1 62 -5 26 -8 38 8 25 33 -8 16
-6 17 22 14 23 -3 38 2 50 16 18 20 18 20 -2 27 -15 4 -21 15 -21 36 0 27 -9
37 -22 23z m-55 -42 c21 -23 8 -42 -28 -45 -35 -2 -45 22 -20 47 21 20 28 20
48 -2z"/>
<path d="M1271 863 l-22 -18 30 -29 c20 -19 31 -40 31 -57 0 -15 7 -29 16 -33
21 -8 34 1 34 25 0 12 7 19 20 19 13 0 20 -7 20 -19 0 -21 39 -36 54 -21 5 5
12 37 14 70 5 66 9 62 -73 66 -27 1 -61 5 -75 9 -18 4 -33 1 -49 -12z m49 -23
c-9 -17 -30 -28 -30 -16 0 2 -3 11 -6 20 -5 12 0 16 20 16 24 0 25 -2 16 -20z
m127 -47 c0 -37 -2 -49 -6 -33 -6 21 -14 26 -48 28 -33 2 -42 -1 -45 -15 -4
-15 -7 -13 -18 10 -19 40 8 66 71 66 l46 1 0 -57z"/>
<path d="M1948 439 c-23 -13 -27 -122 -4 -113 8 3 12 13 9 25 -3 10 0 25 6 33
9 11 9 15 -1 19 -11 3 -11 8 0 26 14 24 14 24 -10 10z"/>
<path d="M800 416 c0 -7 -3 -28 -7 -46 -5 -26 -3 -31 7 -25 8 5 18 1 27 -10
12 -18 13 -18 13 3 0 13 -6 22 -15 22 -8 0 -15 8 -15 18 0 14 2 15 10 2 11
-17 13 -6 4 28 -7 24 -24 30 -24 8z"/>
<path d="M864 384 c-10 -39 8 -89 31 -89 23 0 33 31 16 48 -9 9 -11 6 -9 -10
2 -12 -1 -23 -7 -25 -5 -2 -11 17 -13 41 -3 36 -1 43 12 38 9 -4 16 -2 16 2 0
8 -23 21 -36 21 -2 0 -7 -12 -10 -26z"/>
<path d="M1877 403 c-11 -11 -8 -48 5 -61 10 -10 10 -17 -1 -33 -10 -17 -10
-20 0 -17 26 9 34 36 16 56 -20 22 -22 48 -4 55 6 3 7 6 1 6 -6 1 -14 -2 -17
-6z"/>
<path d="M1810 369 c-9 -16 -8 -24 4 -38 18 -20 21 -47 6 -54 -6 -3 -5 -4 2
-3 19 4 21 51 3 66 -14 12 -14 15 1 31 10 11 12 19 6 19 -6 0 -16 -9 -22 -21z"/>
<path d="M940 325 c0 -30 5 -55 10 -55 6 0 10 9 10 19 0 11 6 22 13 24 10 4
10 6 0 6 -7 1 -13 10 -13 21 0 11 6 20 13 20 8 0 7 4 -3 10 -26 17 -30 11 -30
-45z"/>
<path d="M1751 356 c-15 -18 -10 -98 6 -103 7 -3 9 3 6 16 -3 12 0 27 6 35 9
11 9 15 -1 19 -11 3 -11 8 0 26 14 24 1 29 -17 7z"/>
<path d="M1007 354 c-11 -11 -8 -92 3 -99 6 -3 10 2 10 11 0 10 8 26 17 36 13
14 15 23 7 35 -12 20 -27 26 -37 17z m28 -23 c3 -5 1 -12 -5 -16 -5 -3 -10 1
-10 9 0 18 6 21 15 7z"/>
<path d="M1080 285 c0 -46 3 -55 18 -54 10 0 12 3 5 6 -7 2 -13 13 -13 23 0
10 6 21 13 23 10 4 10 6 0 6 -7 1 -13 10 -13 20 0 11 6 22 13 24 7 3 5 6 -5 6
-15 1 -18 -8 -18 -54z"/>
<path d="M1647 333 c-4 -3 -6 -31 -6 -62 1 -45 3 -50 8 -26 7 29 7 29 15 8 4
-13 11 -23 16 -23 6 0 6 9 1 23 -5 12 -6 37 -4 55 4 23 1 32 -9 32 -8 0 -18
-3 -21 -7z m23 -28 c0 -8 -4 -15 -10 -15 -5 0 -10 7 -10 15 0 8 5 15 10 15 6
0 10 -7 10 -15z"/>
<path d="M1177 323 c-12 -12 -7 -40 10 -54 15 -13 15 -12 3 11 -9 17 -10 25
-1 28 13 4 15 22 3 22 -5 0 -12 -3 -15 -7z"/>
<path d="M1602 283 c-2 -64 -22 -71 -22 -8 0 25 -3 45 -8 45 -13 0 2 -103 15
-108 18 -5 25 18 20 74 l-3 49 -2 -52z"/>
<path d="M1230 265 c0 -51 2 -55 23 -54 12 0 16 3 10 6 -16 6 -17 33 -1 33 9
0 9 3 0 12 -14 14 -16 52 -2 43 6 -3 10 -1 10 4 0 6 -9 11 -20 11 -18 0 -20
-7 -20 -55z"/>
<path d="M1508 265 c2 -30 8 -55 12 -55 4 0 10 25 12 55 2 44 0 55 -12 55 -12
0 -14 -11 -12 -55z"/>
<path d="M1300 261 c0 -48 17 -70 41 -55 11 6 12 91 1 98 -4 2 -6 -13 -4 -33
3 -29 0 -40 -13 -45 -15 -5 -17 0 -13 39 2 25 0 45 -4 45 -5 0 -8 -22 -8 -49z"/>
<path d="M1384 255 c1 -39 5 -51 18 -53 23 -4 32 34 20 79 -10 33 -10 33 -11
-18 -1 -66 -19 -70 -24 -5 l-4 47 1 -50z"/>
<path d="M1463 260 c0 -30 2 -43 4 -27 2 15 2 39 0 55 -2 15 -4 2 -4 -28z"/>
<path d="M1031 273 c-1 -12 4 -25 9 -28 12 -7 12 2 0 30 -8 19 -9 19 -9 -2z"/>
<path d="M1200 242 c0 -6 -8 -13 -17 -15 -16 -4 -16 -5 -1 -6 18 -1 34 16 24
26 -3 4 -6 1 -6 -5z"/>
</g>
</svg>
