<svg width="207" height="219" viewBox="0 0 207 219" fill="none" xmlns="http://www.w3.org/2000/svg">
<path d="M0.028604 209.463C0.0593448 209.278 0.0593438 209.186 0.0900846 209.002C0.458973 207.803 1.22749 205.559 2.3649 202.331C4.7012 195.599 7.65231 189.02 10.3882 182.442C12.1712 178.169 13.9849 173.865 15.9523 169.654C16.2597 169.069 16.6286 168.332 17.059 167.471C17.3971 166.825 17.889 166.518 18.4731 166.61C19.0879 166.702 19.4875 167.102 19.6412 167.84C19.7642 168.301 19.7949 169.1 19.7949 170.268C19.6412 181.181 19.6412 192.094 20.0408 202.976C20.0716 203.868 20.1023 205.128 20.1638 206.727C20.2253 208.325 20.2868 209.524 20.3175 210.231C20.3482 210.969 20.3175 211.553 20.256 211.891C20.1638 212.445 19.7949 212.752 19.2108 212.814C18.6268 212.875 18.1964 212.629 17.9505 212.045C17.8582 211.891 17.8275 211.615 17.766 211.215C17.6738 208.325 17.4893 205.344 17.4893 202.546C17.4893 202.116 17.2434 201.778 16.7516 201.593C15.9831 201.286 14.5075 200.948 12.3249 200.64C11.6793 200.548 10.7264 200.394 9.5275 200.179C8.29787 199.964 7.49861 199.81 7.12972 199.749C6.66861 199.687 6.3612 199.687 6.23823 199.749C6.11527 199.81 5.96157 200.056 5.80786 200.425C4.76268 203.192 3.80971 206.02 2.85675 208.817C2.70305 209.278 2.51861 209.709 2.3649 210.078C2.08824 210.754 1.5349 210.969 0.797123 210.785C0.182308 210.631 -0.094359 210.17 0.028604 209.463ZM7.99046 197.289C9.0049 197.382 10.6034 197.72 12.6938 198.119C14.446 198.458 15.5527 198.642 15.8601 198.704C16.106 198.765 16.4442 198.765 16.7823 198.765C17.1512 198.734 17.3356 198.55 17.3356 198.242C17.3356 197.781 17.2127 197.474 16.8745 197.382C15.6449 197.074 14.9686 196.921 14.8764 196.921C13.1549 196.736 10.9108 196.429 8.29787 195.906C7.71379 195.783 7.40638 196.121 7.25268 196.767C7.22194 197.044 7.43713 197.228 7.99046 197.289ZM17.2742 176.447C17.2434 176.386 17.2434 175.248 17.2742 173.035C17.1819 173.096 17.0897 173.25 16.9975 173.465C16.1368 175.341 15.276 177.369 14.3538 179.491C13.4623 181.612 12.4786 183.979 11.4334 186.561C10.3882 189.143 9.5275 191.172 8.91268 192.586C8.91268 192.617 8.88194 192.678 8.82046 192.771C8.72824 193.109 8.8512 193.324 9.22009 193.355C9.5275 193.416 10.7571 193.601 12.909 193.877C15.0608 194.185 16.3212 194.246 16.6286 194.246C16.9053 194.246 17.1512 194.277 17.2434 194.215C17.3356 194.154 17.3664 193.969 17.3664 193.662C17.2434 187.975 17.1512 182.226 17.2742 176.447Z" fill="#212121"/>
<path d="M25.7586 196.951C25.7893 196.336 25.8201 195.261 25.9738 193.908C26.6501 188.621 28.1564 182.934 30.9538 178.23C32.5523 175.556 34.3045 172.851 36.9175 170.975C38.639 169.746 40.4219 169.346 42.1434 169.715C43.0964 169.899 43.9571 170.637 44.7256 171.959C45.1253 172.574 45.3712 173.496 45.5556 174.634C45.6479 175.248 45.4019 175.709 44.7564 175.894C44.0801 176.109 43.5268 175.894 43.1886 175.279C43.1271 175.095 43.0349 174.756 42.9427 174.265C42.8505 173.742 42.6968 173.25 42.4201 172.82C42.2049 172.574 42.0512 172.574 41.8975 172.758C39.5919 175.494 37.3171 178.507 35.9338 181.735C34.243 185.762 32.7982 190.096 32.2449 194.523C31.876 197.412 31.5071 200.425 31.8145 203.345C32.1527 206.389 32.9212 209.125 34.0586 211.461C34.3045 211.984 34.5197 212.291 34.7964 212.383C35.0423 212.475 35.4419 212.383 35.9953 212.137C36.7023 211.799 37.3171 211.246 37.809 210.446C38.8849 208.786 39.9301 206.788 40.9445 204.483C40.9445 204.452 40.9753 204.391 41.0368 204.298C41.0368 204.206 41.0675 204.145 41.129 204.114C41.4671 203.438 42.0205 203.192 42.666 203.407C43.373 203.622 43.6805 204.145 43.5268 204.882C43.4345 205.282 43.1886 205.866 42.789 206.665C41.2212 209.678 40.1453 211.553 39.5612 212.291C38.7312 213.305 37.8705 214.043 36.9175 214.412C34.9808 215.181 33.0749 214.935 31.3227 213.613C29.8164 212.475 28.6482 210.969 27.8182 209.094C26.189 205.282 25.5434 201.101 25.7586 196.951ZM28.7405 203.376C28.9249 204.514 29.2323 205.559 29.6627 206.542C29.1708 204.083 29.0171 201.716 29.1401 199.472C29.263 197.136 29.5397 194.769 29.9701 192.402C30.3697 190.035 31.0153 187.729 31.8145 185.516C32.7675 182.872 33.659 180.659 34.5505 178.968C35.319 177.462 36.6408 175.525 38.3623 173.127C38.3316 173.096 38.3316 173.096 38.3008 173.066C38.2086 173.004 38.1779 172.974 38.1779 172.912C38.0242 173.096 37.9319 173.219 37.7782 173.404C36.3642 174.756 35.2575 176.048 34.4582 177.246C31.169 182.196 29.6012 187.944 28.5253 193.631C27.849 196.859 28.2793 200.118 28.7405 203.376Z" fill="#212121"/>
<path d="M65.5371 187.637C65.6601 190.465 65.6601 193.478 65.5064 196.367C65.2912 199.841 65.0145 203.438 64.3075 206.85C63.8156 209.217 62.8319 211.492 61.4179 213.521C60.3727 214.996 58.8971 215.98 57.1449 216.564C55.9767 216.933 54.7471 216.933 53.456 216.502C52.1649 216.041 51.1812 215.304 50.5049 214.289C49.7364 213.121 49.1216 211.553 48.6912 209.616C47.9227 205.374 47.4001 201.501 47.646 197.351C47.9534 191.479 49.0601 185.178 51.0582 179.368C51.8882 176.97 52.8105 174.941 53.7634 173.404C54.8701 171.682 56.4071 170.822 58.1901 170.699C59.8193 170.576 61.1719 171.221 62.1249 172.635C62.8012 173.681 63.416 175.218 63.9693 177.216C65.0145 180.566 65.4142 184.163 65.5371 187.637ZM51.7653 211.031C51.9805 211.768 52.2879 212.322 52.6875 212.752C50.8738 199.195 52.1956 186.53 56.8067 173.65C56.5301 173.804 56.2227 174.172 55.8538 174.695C55.0853 175.832 54.3475 177.523 53.579 179.706C51.919 184.348 51.1505 189.328 50.4742 194.215C50.0745 197.074 49.9516 200.21 50.2282 203.099C50.4742 205.958 50.9968 208.602 51.7653 211.031ZM61.4486 207.28C62.3093 203.899 62.5553 200.456 62.8012 197.013C63.0164 194.215 63.1086 191.787 63.0471 189.85C62.9242 186.499 62.8319 183.118 62.0634 179.829C61.5408 177.585 60.926 175.74 60.219 174.326C60.1882 174.265 60.1882 174.234 60.1575 174.203C60.0345 173.926 59.8501 173.742 59.7271 173.773C59.6656 173.773 59.5734 173.865 59.5119 173.896C59.4505 173.926 59.4197 174.111 59.3275 174.418C56.653 180.536 55.3927 187.022 54.6242 193.539C54.1323 197.874 54.1016 202.331 54.5319 206.696C54.5627 206.911 54.5934 207.403 54.6856 208.141C54.7471 208.879 54.8086 209.401 54.8393 209.709C54.9008 210.016 54.9623 210.477 55.0545 211.061C55.1468 211.645 55.2697 212.168 55.3927 212.629C55.5156 213.09 55.6693 213.551 55.8231 213.92C55.9768 214.228 56.1919 214.351 56.4379 214.228C57.4216 213.889 58.0979 213.49 58.5282 212.967C59.9423 211.369 60.8953 209.494 61.4486 207.28Z" fill="#212121"/>
<path d="M86.5638 208.541C86.5945 208.756 86.656 208.909 86.779 208.94C86.8405 208.848 86.8712 208.664 86.8712 208.418C86.8712 208.387 86.8712 208.295 86.8405 208.172C86.8097 208.049 86.8097 207.956 86.8097 207.864C86.8097 207.772 86.8097 207.68 86.8097 207.588C86.8405 206.573 86.8712 205.159 86.9019 203.315C86.9327 201.47 86.9634 199.81 86.9942 198.273C87.0249 196.736 87.0249 195.291 87.0556 193.939C87.0556 192.924 87.0864 191.756 87.0864 190.465C87.0864 189.174 87.0864 187.975 87.0864 186.961C87.0864 185.915 87.0864 184.747 87.0864 183.456C87.0864 182.165 87.0864 180.966 87.1171 179.921C87.1171 179.429 87.1479 178.538 87.1479 177.246C87.1479 175.955 87.1786 174.972 87.2093 174.295C87.2093 173.865 87.2708 173.404 87.3631 173.035C87.4245 172.82 87.5782 172.635 87.7319 172.451C87.8856 172.266 88.0701 172.174 88.2853 172.113C88.5005 172.051 88.6849 172.051 88.8386 172.082C89.5456 172.236 89.8838 172.697 89.7916 173.496C89.5456 176.355 89.4534 179.337 89.5764 182.226C89.5764 182.749 89.5456 183.518 89.5456 184.501C89.5456 185.485 89.5456 186.223 89.5149 186.653C89.5149 189.912 89.5456 192.002 89.5149 192.678C89.3305 196.091 89.4227 199.749 89.4227 203.284C89.3919 207.895 89.4227 210.631 89.4534 211.369C89.5764 213.889 89.5764 215.826 89.5456 217.148C89.5149 217.794 89.2382 218.224 88.6542 218.378C88.0394 218.531 87.486 218.408 87.0249 217.947C86.7482 217.671 86.5638 217.363 86.4716 216.994C85.5494 214.105 85.0882 212.568 85.119 212.445C84.8731 211.584 84.4734 210.385 83.9508 208.817C83.4282 207.249 83.0594 206.143 82.8749 205.466C82.6905 204.944 82.3216 203.684 81.7375 201.747C81.1534 199.81 80.6923 198.304 80.3849 197.228C79.2475 193.539 78.0793 189.85 76.9112 186.131C76.7882 185.731 76.2349 184.102 75.3127 181.212C75.1897 180.843 75.1282 180.659 75.0053 180.259C74.8516 180.382 74.7901 180.628 74.7593 180.966C74.5442 185.669 74.329 190.373 74.1138 195.076C74.0831 196.06 74.0216 197.259 73.9601 198.673C73.8986 200.118 73.8064 201.501 73.7449 202.854C73.6527 204.206 73.5297 205.436 73.4682 206.512C73.4068 207.188 73.376 208.172 73.2838 209.401C73.1916 210.6 73.1301 211.738 73.0071 212.752C72.9149 213.766 72.8227 214.719 72.7305 215.58C72.6382 216.472 72.2079 216.902 71.4393 216.902C70.6093 216.933 70.1175 216.533 70.1482 215.765C70.179 213.951 70.3634 212.598 70.4249 211.922C70.4557 211.553 70.4864 211.092 70.5171 210.662C70.5479 210.231 70.6093 209.739 70.6708 209.217C70.7323 208.694 70.763 208.264 70.763 207.956C71.1012 203.099 71.4086 198.089 71.6545 193.139C71.9312 187.975 72.1771 182.811 72.4538 177.646C72.4845 177.216 72.546 176.478 72.6382 175.494C72.7305 174.511 72.7919 173.711 72.8227 173.158C72.8534 172.82 72.9456 172.482 73.1301 172.174C73.499 171.744 73.9601 171.59 74.4519 171.682C74.9438 171.775 75.2819 172.082 75.4356 172.635C76.2042 175.894 77.1879 179.091 78.2331 182.288C79.5856 186.438 80.4771 189.02 80.7845 190.035C82.1371 194.369 83.5205 198.704 84.8423 203.038C84.9653 203.53 85.1497 204.114 85.3956 204.79C85.6416 205.466 85.8568 206.112 86.0412 206.727C86.1949 207.434 86.3794 208.018 86.5638 208.541Z" fill="#212121"/>
<path d="M95.0175 201.624C94.9868 201.009 94.8945 199.933 94.9253 198.581C95.0175 193.262 95.909 187.422 98.1838 182.442C99.4749 179.614 100.92 176.724 103.318 174.572C104.916 173.158 106.638 172.605 108.39 172.758C109.343 172.851 110.296 173.496 111.218 174.726C111.679 175.31 112.017 176.201 112.325 177.308C112.478 177.923 112.294 178.384 111.679 178.63C111.033 178.906 110.48 178.753 110.05 178.169C109.957 177.984 109.835 177.646 109.712 177.185C109.558 176.662 109.343 176.201 109.035 175.802C108.82 175.586 108.636 175.586 108.513 175.802C106.515 178.784 104.578 182.011 103.563 185.362C102.303 189.574 101.35 194.031 101.258 198.488C101.196 201.378 101.166 204.452 101.78 207.311C102.426 210.293 103.502 212.936 104.885 215.15C105.162 215.642 105.439 215.918 105.715 215.98C105.961 216.041 106.361 215.918 106.883 215.611C107.56 215.211 108.082 214.596 108.513 213.736C109.404 211.953 110.234 209.893 111.003 207.495C111.003 207.465 111.033 207.372 111.064 207.311C111.064 207.219 111.095 207.157 111.126 207.126C111.402 206.419 111.894 206.112 112.601 206.235C113.339 206.389 113.677 206.85 113.616 207.618C113.585 208.018 113.4 208.633 113.093 209.494C111.863 212.66 110.972 214.627 110.48 215.426C109.773 216.533 108.974 217.332 108.082 217.824C106.238 218.808 104.332 218.746 102.457 217.64C100.858 216.687 99.5364 215.273 98.4912 213.521C96.3394 209.862 95.2634 205.774 95.0175 201.624ZM98.6756 207.711C98.9831 208.817 99.4134 209.832 99.936 210.754C99.1982 208.356 98.7679 206.051 98.6449 203.776C98.5219 201.439 98.5527 199.072 98.7064 196.644C98.8601 194.246 99.229 191.879 99.7823 189.604C100.459 186.868 101.104 184.563 101.78 182.78C102.395 181.212 103.471 179.122 104.947 176.539C104.916 176.509 104.916 176.509 104.885 176.478C104.793 176.447 104.762 176.386 104.762 176.355C104.639 176.57 104.547 176.662 104.424 176.878C103.164 178.384 102.211 179.767 101.535 181.058C98.7986 186.315 97.8457 192.217 97.3845 197.996C97.1079 201.316 97.8764 204.514 98.6756 207.711Z" fill="#212121"/>
<path d="M133.136 189.112C133.105 188.774 133.044 187.022 132.89 183.886C132.89 183.61 132.829 182.78 132.767 181.396C132.706 180.013 132.583 179.029 132.49 178.538C132.398 177.954 132.398 177.031 132.398 175.894C132.398 174.756 132.429 174.049 132.398 173.773C132.398 173.496 132.46 173.158 132.552 172.758C132.675 172.297 132.952 171.99 133.443 171.928C133.966 171.867 134.396 172.021 134.673 172.389C134.919 172.758 135.103 173.373 135.165 174.08C135.442 177.615 135.411 181.396 135.503 185.085C135.534 185.454 135.534 185.7 135.534 185.885C135.595 187.084 135.687 189.543 135.872 193.232C135.995 196.306 136.149 199.411 136.333 202.485C136.487 204.944 136.579 207.434 136.733 209.832C136.886 212.752 137.102 214.719 137.225 215.642C137.225 215.857 137.255 216.103 137.255 216.379C137.255 217.148 136.825 217.578 136.026 217.64C135.196 217.701 134.673 217.363 134.55 216.595C134.55 216.564 134.55 216.441 134.55 216.256C134.273 212.168 134.12 209.985 134.12 209.77C134.058 209.032 133.905 206.881 133.751 203.376C133.597 199.872 133.505 197.751 133.474 196.982C133.443 196.582 133.382 196.336 133.259 196.214C133.136 196.121 132.859 196.091 132.398 196.152C130.8 196.367 128.34 196.644 125.082 196.951C122.807 197.166 121.332 197.259 120.717 197.289C120.194 197.289 120.01 197.566 120.04 198.027C120.317 201.716 120.163 204.175 120.133 204.729C120.04 208.295 120.256 212.076 120.317 215.734C120.317 215.857 120.317 215.98 120.317 216.072C120.286 216.379 120.163 216.625 119.948 216.841C119.733 217.056 119.426 217.117 119.149 217.148C118.872 217.179 118.596 217.117 118.319 216.933C118.042 216.748 117.95 216.472 117.919 216.164C117.858 215.457 117.766 214.689 117.796 214.043C117.858 212.998 117.889 211.615 117.858 209.893C117.827 208.202 117.766 206.788 117.766 205.743C117.766 204.298 117.766 202.177 117.704 199.441C117.643 196.705 117.643 194.769 117.643 193.662C117.673 190.065 117.55 186.315 117.612 182.718C117.612 181.858 117.643 180.566 117.612 178.876C117.581 177.185 117.55 176.048 117.55 175.433C117.55 175.156 117.55 175.002 117.55 174.972C117.612 174.172 118.012 173.773 118.719 173.742C119.026 173.742 119.303 173.834 119.487 174.049C119.702 174.265 119.795 174.541 119.795 174.849C119.856 176.048 119.917 177.124 119.856 177.892C119.825 178.445 119.825 178.814 119.825 178.876C119.887 180.013 119.918 181.642 119.918 183.794C119.918 185.915 119.948 187.483 120.01 188.436C120.01 188.621 120.01 188.897 119.948 189.266C119.917 189.635 119.887 189.912 119.887 190.096C119.887 190.404 119.948 190.619 120.04 190.711C120.133 190.834 120.379 190.834 120.717 190.803C122.223 190.649 123.729 190.619 124.959 190.465C126.865 190.281 128.925 190.096 131.107 189.912C131.23 189.912 131.445 189.912 131.722 189.881C131.999 189.881 132.245 189.819 132.398 189.789C132.859 189.819 133.136 189.604 133.136 189.112ZM132.644 192.248C132.583 192.248 132.306 192.248 131.814 192.279C131.046 192.34 130.615 192.402 130.585 192.402C130.185 192.463 129.601 192.555 128.863 192.648C128.125 192.74 127.449 192.832 126.834 192.894C126.219 192.955 125.635 193.016 125.082 193.078C122.192 193.385 120.717 193.539 120.625 193.539C120.163 193.539 119.948 193.816 120.01 194.277C120.04 194.523 120.286 194.646 120.717 194.584C121.086 194.523 121.639 194.461 122.377 194.338C123.238 194.185 124.467 194.031 126.096 193.939C127.695 193.816 128.832 193.693 129.386 193.662C129.693 193.631 130.062 193.601 130.4 193.539C130.769 193.478 131.169 193.416 131.63 193.355C132.091 193.293 132.46 193.201 132.644 193.17C133.013 193.109 133.197 192.955 133.167 192.678C133.197 192.463 133.013 192.279 132.644 192.248Z" fill="#212121"/>
<path d="M147.123 174.234C147.123 174.357 147.246 175.402 147.338 177.216C147.369 177.954 147.43 179.491 147.615 181.765C147.799 184.071 147.922 185.577 147.953 186.315C148.107 188.159 148.199 189.082 148.353 190.926C148.383 191.264 148.445 191.51 148.537 191.602C148.629 191.695 148.875 191.787 149.244 191.787C150.597 191.818 152.072 191.664 153.579 191.541C153.794 191.51 154.07 191.479 154.378 191.449C154.685 191.418 154.962 191.356 155.269 191.326C155.577 191.295 155.823 191.264 156.069 191.234C156.868 191.141 157.421 191.449 157.513 192.125C157.575 192.463 157.452 192.771 157.268 193.047C157.083 193.293 156.776 193.478 156.376 193.539C155.546 193.662 154.655 193.754 153.825 193.816C153.271 193.846 152.472 193.908 151.427 194C150.382 194.092 149.736 194.123 149.582 194.123C149.183 194.154 148.906 194.215 148.814 194.308C148.691 194.4 148.66 194.646 148.691 195.045C148.937 197.996 149.275 201.04 149.521 204.022C149.521 204.206 149.552 204.329 149.552 204.421C149.89 208.817 150.105 211.338 150.136 211.953C150.136 212.137 150.166 212.352 150.166 212.568C150.197 212.814 150.228 213.059 150.259 213.336C150.289 213.613 150.32 213.828 150.351 213.982C150.382 214.32 150.628 214.535 151.027 214.535C151.949 214.535 152.964 214.381 154.009 214.197C154.193 214.135 154.47 214.074 154.808 214.043C155.146 213.982 155.454 213.951 155.7 213.92C155.946 213.889 156.192 213.828 156.499 213.766C156.806 213.705 157.083 213.644 157.39 213.551C157.944 213.336 158.436 213.49 158.774 214.043C159.112 214.535 159.05 215.027 158.589 215.457C158.282 215.734 157.821 215.949 157.206 216.103C154.808 216.564 152.134 216.81 149.244 216.902C148.199 216.933 147.369 216.902 146.723 216.81C145.371 216.533 144.633 215.826 144.449 214.689C144.295 213.674 144.233 212.752 144.141 212.045C144.08 211.553 144.018 210.938 143.957 210.293C143.926 209.647 143.865 209.063 143.803 208.541C143.742 208.018 143.68 207.403 143.619 206.758C143.557 206.112 143.496 205.528 143.465 205.036C143.434 204.329 143.373 203.099 143.28 201.316C143.188 199.564 143.096 198.273 143.004 197.535C142.696 194.707 142.573 191.787 142.481 188.928C142.45 187.668 142.327 185.577 142.143 182.718C141.959 179.859 141.866 177.738 141.805 176.416C141.805 176.201 141.774 175.925 141.713 175.617C141.682 175.31 141.651 175.033 141.62 174.756C141.59 174.48 141.59 174.203 141.559 173.896C141.528 173.588 141.528 173.312 141.498 173.096C141.436 172.205 141.866 171.682 142.727 171.498C145.648 170.883 148.845 170.637 151.796 170.668C152.779 170.668 153.548 170.606 154.04 170.484C154.532 170.391 154.993 170.391 155.3 170.453C155.915 170.545 156.222 170.914 156.253 171.498C156.284 172.082 156.038 172.512 155.423 172.697C155.331 172.697 155.054 172.758 154.624 172.82C153.855 172.912 152.687 172.943 151.181 173.004C149.675 173.066 148.629 173.096 148.015 173.127C147.523 173.158 147.246 173.219 147.154 173.312C147.154 173.465 147.092 173.773 147.123 174.234ZM144.356 179.337C144.387 179.644 144.541 182.442 144.818 187.698C145.094 192.955 145.309 195.722 145.34 195.875C145.494 196.675 145.402 197.843 145.463 198.857C145.525 199.872 145.617 200.978 145.709 202.208C145.801 203.407 145.893 204.329 145.924 204.944C146.016 206.819 146.17 208.817 146.447 210.877C146.447 211 146.508 211.43 146.57 212.106C146.631 212.783 146.693 213.305 146.785 213.644C146.908 214.166 147.123 214.412 147.4 214.412C147.553 214.412 147.646 214.351 147.676 214.289C147.707 214.228 147.738 214.166 147.769 214.074C147.799 214.012 147.769 213.92 147.738 213.797C147.707 213.705 147.676 213.613 147.676 213.582C147.615 212.844 147.553 211.461 147.4 209.555C147.123 205.743 146.816 201.839 146.447 198.058C146.355 197.044 146.232 195.629 146.109 193.754C145.986 191.91 145.863 190.588 145.77 189.85C145.678 188.959 145.617 187.606 145.525 185.915C145.402 184.225 145.34 182.934 145.279 182.042C145.248 181.519 145.217 180.874 145.156 180.105C145.094 179.337 145.063 178.691 145.033 178.199C145.002 177.708 144.971 177.062 144.94 176.294C144.91 175.525 144.879 174.879 144.848 174.326C144.817 173.896 144.664 173.681 144.418 173.681C144.049 173.711 143.926 173.957 143.988 174.449C144.11 175.402 144.203 177.062 144.356 179.337Z" fill="#212121"/>
<path d="M180.6 196.152C180.508 195.691 180.477 195.322 180.446 195.076C180.415 194.799 180.323 194.646 180.169 194.584C180.139 194.676 180.108 194.892 180.108 195.261C180.231 198.857 180.538 202.546 180.231 206.051C180.077 207.987 179.77 209.555 179.401 210.631C178.97 211.83 178.325 212.814 177.495 213.521C176.112 214.75 174.329 215.058 172.208 214.412C169.994 213.766 167.996 212.229 166.213 210.078C163.938 207.342 162.678 203.868 162.032 200.609C160.71 194.123 160.864 186.868 162.493 180.013C163.078 177.339 164.307 174.265 165.998 172.082C167.105 170.637 168.211 169.684 169.318 169.223C171.408 168.393 173.283 168.455 174.913 169.408C175.528 169.838 176.173 170.484 176.819 171.375C178.11 173.219 178.97 175.556 179.462 178.261C179.585 178.876 179.432 179.337 179.001 179.583C178.694 179.767 178.325 179.767 177.987 179.644C177.649 179.521 177.433 179.275 177.28 178.937C176.849 177.216 176.511 176.017 176.265 175.402C175.681 173.926 175.036 172.758 174.329 171.959C173.499 171.037 172.423 170.76 171.132 171.037C169.933 171.314 168.765 172.236 167.719 173.742C166.152 175.955 165.045 179.183 164.584 181.858C163.938 185.639 163.539 189.174 163.569 192.924C163.6 196.89 164.307 201.101 165.875 204.821C166.859 207.157 168.18 209.094 169.902 210.569C170.947 211.492 172.115 212.076 173.376 212.352C174.79 212.66 175.896 212.229 176.665 210.938C177.126 210.047 177.495 208.817 177.679 207.28C178.079 204.175 178.11 200.855 177.864 197.72C177.833 197.32 177.833 196.582 177.772 195.599C177.741 195.291 177.679 195.107 177.587 195.015C177.495 194.922 177.31 194.922 176.972 194.953C176.726 194.984 176.388 195.015 175.866 195.076C175.374 195.138 175.005 195.168 174.759 195.199C173.929 195.291 173.468 194.984 173.406 194.277C173.376 194 173.468 193.754 173.683 193.478C173.898 193.201 174.144 193.047 174.482 193.016C175.251 192.955 176.388 192.832 177.833 192.586C179.278 192.34 180.323 192.125 180.907 192.033C181.86 191.879 182.475 192.34 182.598 193.293C182.813 195.322 183.028 196.89 183.213 197.812C183.336 198.365 183.52 199.533 183.766 201.286C184.227 204.391 184.504 206.081 184.535 206.327C184.688 207.526 184.965 209.155 185.365 211.307C185.395 211.615 185.426 211.891 185.457 212.106C185.426 212.691 185.088 213.029 184.442 213.152C183.828 213.275 183.397 213.059 183.151 212.506C183.09 212.383 183.059 212.229 183.028 212.045C182.967 211.676 182.875 211.246 182.813 210.785C182.752 210.323 182.69 209.832 182.598 209.309C182.506 208.786 182.444 208.356 182.413 208.049C181.86 204.391 181.307 200.763 180.753 197.105C180.723 196.921 180.661 196.613 180.6 196.152Z" fill="#212121"/>
<path d="M203.348 181.058C204.086 183.794 204.731 186.745 205.192 189.604C205.746 193.047 206.237 196.644 206.268 200.087C206.299 202.515 205.807 204.944 204.854 207.219C204.147 208.879 202.918 210.17 201.319 211.092C200.274 211.707 199.044 211.984 197.692 211.83C196.339 211.676 195.232 211.154 194.341 210.293C193.357 209.309 192.404 207.926 191.543 206.112C189.853 202.116 188.531 198.458 187.855 194.369C186.902 188.59 186.594 182.165 187.301 176.048C187.609 173.527 188.039 171.344 188.685 169.654C189.392 167.748 190.713 166.549 192.435 166.057C194.003 165.596 195.478 165.903 196.708 167.102C197.599 167.963 198.552 169.346 199.505 171.16C201.319 174.265 202.456 177.677 203.348 181.058ZM194.925 206.85C195.294 207.526 195.724 208.018 196.216 208.356C191.543 195.506 190.099 182.872 191.82 169.285C191.574 169.5 191.359 169.899 191.113 170.514C190.621 171.775 190.252 173.588 189.945 175.894C189.33 180.782 189.637 185.823 190.037 190.742C190.252 193.631 190.806 196.705 191.697 199.472C192.558 202.177 193.665 204.667 194.925 206.85ZM203.594 201.101C203.717 197.628 203.194 194.185 202.702 190.772C202.303 188.006 201.903 185.608 201.411 183.733C200.581 180.505 199.751 177.185 198.306 174.142C197.292 172.051 196.308 170.391 195.325 169.162C195.294 169.1 195.263 169.1 195.232 169.039C195.048 168.793 194.833 168.67 194.71 168.701C194.648 168.731 194.556 168.824 194.525 168.854C194.495 168.916 194.464 169.1 194.464 169.408C193.173 175.955 193.326 182.565 194.003 189.082C194.433 193.416 195.355 197.781 196.739 201.931C196.831 202.146 196.954 202.608 197.2 203.315C197.415 204.022 197.599 204.514 197.692 204.821C197.815 205.128 197.968 205.528 198.183 206.081C198.399 206.635 198.645 207.126 198.86 207.526C199.075 207.926 199.321 208.356 199.567 208.694C199.782 208.971 200.028 209.032 200.243 208.879C201.135 208.356 201.719 207.803 202.026 207.219C202.979 205.436 203.502 203.376 203.594 201.101Z" fill="#212121"/>
<path d="M193.019 43.3704C193.019 46.1678 192.711 48.996 192.158 51.7626C190.529 59.7552 186.625 67.3789 180.415 73.5578L108.82 145.153C107.529 146.444 105.869 147.059 104.178 147.028C103.502 147.028 102.826 146.936 102.149 146.721C101.196 146.413 100.274 145.891 99.5363 145.122L95.7552 141.341L27.9718 73.5578C26.4041 71.99 24.9593 70.2993 23.6681 68.5471C18.1348 61.0156 15.3374 52.07 15.3374 43.1245V43.063C15.3374 37.0993 16.567 31.1356 19.0263 25.6023C21.1167 20.8989 24.0985 16.4723 27.9411 12.6297C28.8633 11.7074 29.8163 10.8467 30.8 10.0167C47.7074 -4.15478 72.9456 -3.2633 88.8693 12.6297L99.5978 23.3582C102.119 25.8789 106.207 25.8789 108.728 23.3582L119.456 12.6297C121.67 10.4163 124.067 8.47967 126.588 6.85041C143.28 -3.90885 165.752 -2.00293 180.354 12.6297C182.844 15.1197 184.965 17.8249 186.717 20.7145C188.162 23.0815 189.361 25.5408 190.283 28.0923C192.189 33.0108 193.08 38.206 193.019 43.3704Z" fill="#6FB0B4"/>
<path d="M193.019 43.3704C193.019 46.1678 192.711 48.996 192.158 51.7626C190.529 59.7552 186.625 67.3789 180.415 73.5578L108.82 145.153C107.529 146.444 105.869 147.059 104.178 147.028C103.502 147.028 102.826 146.936 102.149 146.721C101.196 146.413 100.274 145.891 99.5363 145.122L95.7552 141.341C117.274 121.022 188.008 50.656 169.963 20.5915C158.282 1.13263 140.391 2.08559 126.65 6.85041C143.342 -3.90885 165.813 -2.00293 180.415 12.6297C182.905 15.1197 185.026 17.8249 186.779 20.7145C188.223 23.0815 189.422 25.5408 190.344 28.0923C192.189 33.0108 193.08 38.206 193.019 43.3704Z" fill="#68AAAA"/>
<path d="M193.019 43.3704C185.887 50.533 177.433 55.7897 169.01 61.2923C156.192 69.6845 126.25 75.4023 118.288 76.7856C118.073 76.8163 117.827 76.8471 117.612 76.7856C117.274 76.7549 116.966 76.6319 116.72 76.4782C116.259 76.2015 115.921 75.7404 115.767 75.1871C115.399 73.9574 116.136 72.6971 117.366 72.3897L127.449 69.8997C127.849 69.8074 128.187 69.5308 128.433 69.2234C128.617 68.9467 128.709 68.6393 128.679 68.3319V68.3011C128.679 68.2397 128.679 68.1474 128.648 68.086C128.494 67.256 127.726 66.6719 126.896 66.7641L125.789 66.8871L108.543 68.67C108.082 68.7315 107.621 68.5778 107.283 68.3319C107.191 68.2704 107.099 68.1782 107.006 68.086C106.791 67.84 106.637 67.5634 106.576 67.2252C106.391 66.2415 107.037 65.3193 108.021 65.1348L124.375 62.1223C124.744 62.0608 125.051 61.8456 125.266 61.5382C125.481 61.2308 125.574 60.8619 125.481 60.493C125.359 59.8167 124.774 59.3249 124.067 59.3556L102.856 59.8474C102.272 59.8782 101.75 59.663 101.319 59.3248C100.889 58.9867 100.581 58.4948 100.489 57.9108C100.213 56.4967 101.258 55.1749 102.703 55.1134L124.19 54.0989C124.252 54.0989 124.313 54.0989 124.375 54.0682C125.051 53.9452 125.574 53.3304 125.574 52.6234C125.574 51.9163 125.051 51.3323 124.375 51.2093L103.779 47.7049C102.949 47.5511 102.303 46.9056 102.149 46.1063C102.119 45.9526 102.119 45.8297 102.119 45.676C102.149 44.4771 103.225 43.5856 104.393 43.77L129.908 47.2437C130.523 47.336 131.138 46.9978 131.384 46.4137V46.383C131.876 45.3071 131.445 44.0467 130.431 43.4934C128.371 42.356 125.512 39.8967 123.852 38.3904C123.453 38.0215 123.176 37.5297 123.084 37.0071C122.991 36.4845 123.053 35.9619 123.299 35.47C123.883 34.2711 125.359 33.7486 126.557 34.3634C129.877 35.9619 136.456 38.8208 142.204 39.62C161.786 41.28 173.591 36.4845 185.119 22.9586C185.733 22.2515 186.256 21.5445 186.717 20.8374C188.162 23.2045 189.361 25.6637 190.283 28.2152C190.867 29.7523 191.328 31.3508 191.728 32.9186C191.974 33.933 192.189 34.9474 192.373 35.9619C192.466 36.5767 192.558 37.2223 192.65 37.8678C192.927 39.62 193.05 41.4952 193.019 43.3704Z" fill="#479393"/>
<path d="M115.46 88.4056C115.46 88.9897 115.276 89.5123 114.907 89.9426C114.569 90.373 114.046 90.6497 113.493 90.7419L92.5889 94.3386C91.9126 94.4615 91.4207 95.0456 91.4207 95.7219C91.4207 96.0908 91.5744 96.4597 91.8511 96.7056C92.097 96.9515 92.4659 97.1052 92.8348 97.1052L109.466 96.9208C110.111 96.9208 110.695 97.2589 111.003 97.7815C111.156 98.0582 111.249 98.3656 111.249 98.7037C111.249 99.1649 111.095 99.5952 110.787 99.9334C110.48 100.241 110.08 100.487 109.619 100.517L91.2363 102.177C90.5293 102.239 89.9452 102.762 89.8222 103.407C89.7915 103.53 89.7607 103.653 89.7915 103.807C89.7915 104.237 89.9759 104.637 90.2526 104.913C90.5293 105.19 90.8982 105.374 91.3285 105.405L101.719 105.928C102.979 105.989 103.963 107.096 103.84 108.356C103.779 108.94 103.533 109.432 103.133 109.801C102.733 110.17 102.211 110.385 101.657 110.385C95.6937 110.508 77.6181 110.6 62.8011 108.356L51.1811 96.7363L38.8541 84.44L27.9411 73.5271C26.3733 71.9593 24.9285 70.2685 23.6374 68.5163V68.4856C24.2215 69.0697 24.8978 69.6845 25.6356 70.2378C39.5304 81.3045 52.0726 83.733 70.9474 78.3534C76.45 76.4474 82.3522 72.3897 85.3033 70.1763C86.3793 69.3771 87.9163 69.5923 88.7156 70.6682C89.0537 71.0986 89.2074 71.6212 89.2381 72.1437C89.2381 72.6663 89.0844 73.1889 88.7463 73.65C87.3937 75.4637 85.0881 78.4148 83.2744 79.9211C82.3522 80.6897 82.1678 81.9808 82.8748 82.9337L82.9055 82.9645C83.2744 83.4871 83.9507 83.6715 84.5348 83.4871L108.912 75.1871C110.019 74.8182 111.249 75.4637 111.494 76.6319C111.525 76.7856 111.556 76.9393 111.556 77.0623C111.556 77.8923 111.064 78.6608 110.265 78.9682L90.7137 86.346C90.0682 86.5919 89.6685 87.2682 89.7915 87.9752C89.9144 88.6823 90.5293 89.1741 91.2363 89.1741C91.2978 89.1741 91.3593 89.1741 91.4207 89.1741L112.724 86.0386C114.169 85.8848 115.46 86.9915 115.46 88.4056Z" fill="#BDE6C4"/>
<path d="M49.9896 29.7611C53.351 26.3997 54.3242 21.9231 52.1633 19.7622C50.0024 17.6013 45.5257 18.5745 42.1644 21.9359C38.803 25.2972 37.8298 29.7739 39.9907 31.9348C42.1516 34.0957 46.6282 33.1225 49.9896 29.7611Z" fill="#7EC1C1"/>
<path d="M103.84 108.387C103.779 108.971 103.533 109.463 103.133 109.832C102.733 110.201 102.211 110.416 101.657 110.416C95.6937 110.539 77.6181 110.631 62.8011 108.387L55.9767 101.563C63.1085 103.192 73.3144 104.022 89.853 103.438C89.8222 103.561 89.7915 103.684 89.8222 103.837C89.8222 104.268 90.0067 104.667 90.2833 104.944C90.56 105.221 90.9289 105.405 91.3593 105.436L101.75 105.959C102.979 106.02 103.932 107.127 103.84 108.387Z" fill="#A7D3AD"/>
<path d="M193.019 43.3704C185.887 50.533 177.433 55.7897 169.01 61.2923C156.192 69.6845 126.25 75.4023 118.288 76.7856C118.073 76.8163 117.827 76.8471 117.612 76.7856C117.274 76.7549 116.966 76.6319 116.72 76.4782C116.259 76.2015 115.921 75.7404 115.767 75.1871C115.399 73.9574 116.136 72.6971 117.366 72.3897L127.449 69.8997C127.849 69.8074 128.187 69.5308 128.433 69.2234C128.617 68.9467 128.709 68.6393 128.679 68.3319C160.464 63.7208 182.874 46.6597 192.681 37.7756C192.927 39.62 193.05 41.4952 193.019 43.3704Z" fill="#408987"/>
</svg>
